<?xml version="1.0" encoding="UTF-8" standalone="no"?>
<!-- Uploaded to: SVG Repo, www.svgrepo.com, Generator: SVG Repo Mixer Tools -->

<svg
   width="32"
   height="32"
   viewBox="0 0 0.96 0.96"
   fill="none"
   version="1.1"
   id="svg8"
   sodipodi:docname="github-outline.svg"
   inkscape:export-filename="github-outline.png"
   inkscape:export-xdpi="96"
   inkscape:export-ydpi="96"
   inkscape:version="1.2.2 (732a01da63, 2022-12-09)"
   xmlns:inkscape="http://www.inkscape.org/namespaces/inkscape"
   xmlns:sodipodi="http://sodipodi.sourceforge.net/DTD/sodipodi-0.dtd"
   xmlns="http://www.w3.org/2000/svg"
   xmlns:svg="http://www.w3.org/2000/svg">
  <defs
     id="defs12" />
  <sodipodi:namedview
     id="namedview10"
     pagecolor="#ffffff"
     bordercolor="#666666"
     borderopacity="1.0"
     inkscape:showpageshadow="2"
     inkscape:pageopacity="0.0"
     inkscape:pagecheckerboard="0"
     inkscape:deskcolor="#d1d1d1"
     showgrid="false"
     inkscape:zoom="16.74"
     inkscape:cx="2.8673835"
     inkscape:cy="19.354839"
     inkscape:window-width="1920"
     inkscape:window-height="1017"
     inkscape:window-x="1912"
     inkscape:window-y="-8"
     inkscape:window-maximized="1"
     inkscape:current-layer="svg8" />
  <path
     d="m 0.48,0.92610359 c 0.24637415,0 0.4461036,-0.19972943 0.4461036,-0.44610359 0,-0.24637657 -0.19972945,-0.44610359 -0.4461036,-0.44610359 -0.24637658,0 -0.4461036,0.19972702 -0.4461036,0.44610359 0,0.24637416 0.19972702,0.44610359 0.4461036,0.44610359 z"
     stroke="currentColor"
     stroke-width="1.5"
     stroke-linecap="round"
     stroke-linejoin="round"
     id="path2"
     style="display:none;stroke-width:0.0334578;stroke-dasharray:none" />
  <g
     id="g857"
     transform="matrix(1.5200582,0,0,1.5200582,-0.22429284,-0.26057835)">
    <path
       d="m 0.59021675,0.77828079 v -0.0834287 c 0.001094,-0.0138576 -7.9012e-4,-0.0277941 -0.005652,-0.0408738 -0.004863,-0.0130797 -0.012484,-0.0250106 -0.0224152,-0.0349904 0.0937417,-0.0101739 0.19226172,-0.0447697 0.19226172,-0.20348452 -8.51e-6,-0.0405881 -0.0160395,-0.0796173 -0.0447818,-0.10901227 0.0136083,-0.035507 0.012648,-0.0747556 -0.002674,-0.10959091 0,0 -0.0352275,-0.0101739 -0.11673249,0.0430253 -0.0684266,-0.0180575 -0.14055289,-0.0180575 -0.20898135,0 -0.0815026,-0.0531936 -0.11673126,-0.0430253 -0.11673126,-0.0430253 -0.0153345,0.0348384 -0.0162948,0.0740833 -0.002674,0.10959091 -0.028955,0.0296115 -0.0450068,0.068995 -0.0447818,0.10988089 0,0.15755639 0.09852,0.19215049 0.19226231,0.20348453 -0.009823,0.009883 -0.0173949,0.0216677 -0.0222329,0.0345953 -0.004863,0.0129217 -0.006819,0.026688 -0.005834,0.0404058 v 0.0834287"
       stroke="currentColor"
       stroke-width="1.5"
       stroke-linecap="round"
       stroke-linejoin="round"
       id="path4"
       style="stroke-width:0.0335864;stroke-dasharray:none" />
    <path
       d="m 0.38123601,0.72014522 c -0.0895637,0.0282864 -0.16420012,0 -0.20898197,-0.0872085"
       stroke="currentColor"
       stroke-width="1.5"
       stroke-linecap="round"
       stroke-linejoin="round"
       id="path6"
       style="stroke-width:0.0335864;stroke-dasharray:none" />
  </g>
</svg>
